<svg width="159" height="24" viewBox="0 0 159 24" fill="none" xmlns="http://www.w3.org/2000/svg">
<path d="M17.651 10.7448C17.4959 10.7448 17.3409 10.7834 17.1858 10.7834C16.9532 10.7834 16.6818 10.7448 16.4492 10.7063C13.5028 10.3207 11.0992 9.04835 9.62598 8.0459L17.651 22.3116V10.7448Z" fill="white"/>
<path d="M9.0832 17.5307L17.0695 22.0803L8.85059 7.54474L9.0832 17.5307Z" fill="white"/>
<path d="M32.6155 14.0222L18.3101 10.8606L25.3271 18.4176L32.4992 14.3692C32.5768 14.3306 32.6543 14.2535 32.6543 14.1764C32.6543 14.1378 32.6543 14.0607 32.6155 14.0222Z" fill="white"/>
<path d="M18.3096 10.2434C20.3643 9.78077 24.1248 8.58554 26.0245 5.96374C26.2152 5.58431 26.2685 5.15976 25.7919 4.92273C24.4737 4.34439 21.6824 3.03349 19.7052 2.06959C18.6197 1.52981 17.3016 1.60692 16.2161 2.22381C14.7688 3.13979 13.2566 3.97894 11.7577 4.80706C10.9237 5.25369 10.026 5.67247 9.23781 6.19507C9.09761 6.28803 8.85013 6.4628 8.85013 6.65774C8.81136 7.00475 9.23781 7.39031 9.50919 7.58309C9.66426 7.69875 9.8581 7.81442 10.0519 7.93009C10.9048 8.50843 11.8353 8.9711 12.7657 9.35666C13.9675 9.85789 15.2081 10.2049 16.4875 10.3591C16.9527 10.4362 17.4179 10.4362 17.8831 10.3591C17.9994 10.3206 18.1545 10.282 18.3096 10.2434Z" fill="white"/>
<path d="M8.15277 16.9908L6.6408 14.1763L3.19043 14.1377C3.2292 14.1763 3.2292 14.1763 3.26797 14.2148L8.15277 16.9908Z" fill="white"/>
<path d="M8.67818 17.2455L8.61905 14.1982L6.96582 14.1823C7.00675 14.2437 7.13411 14.4984 7.13411 14.4984L8.67818 17.2455Z" fill="white"/>
<path d="M23.1948 16.6821L22.2256 18.1473L24.8231 18.4557L23.1948 16.6821Z" fill="white"/>
<path d="M21.9539 18.4945L19.938 21.4633L24.6677 18.803L21.9539 18.4945Z" fill="white"/>
<path d="M19.2016 21.8871L22.9621 16.4122L18.0386 11.13V22.3883C18.5426 22.294 18.9302 22.1012 19.2016 21.8871Z" fill="white"/>
<path d="M18.6978 10.5945L32.2666 13.6019L26.5289 5.8136C26.4777 5.96658 26.413 6.09066 26.3199 6.2204C24.5331 8.71227 21.2492 9.94094 18.6978 10.5945Z" fill="white"/>
<path d="M8.61798 13.8288L8.46291 6.96588L3.19043 13.7517L6.87341 13.7903L8.61798 13.8288Z" fill="white"/>
<path d="M45.8466 11.966C46.2878 11.966 46.7291 11.966 47.1704 11.8197C47.6116 11.6735 47.9058 11.5272 48.0529 11.2346C48.347 10.9421 48.4941 10.7958 48.6412 10.3569C48.7883 10.0644 48.7883 9.62552 48.7883 9.33296C48.7883 8.60156 48.4941 7.87017 48.0529 7.43133C47.6116 6.99249 46.8762 6.69992 45.8466 6.69992H43.9345V11.8197V11.9454L45.8466 11.966ZM45.8466 5.3834C46.582 5.3834 47.3174 5.52968 47.9058 5.67596C48.4941 5.82224 48.9354 6.1148 49.3766 6.40736C49.8179 6.69992 50.1121 7.13876 50.2592 7.5776C50.4062 8.01645 50.5533 8.60156 50.5533 9.18669C50.5533 9.77181 50.4062 10.3569 50.2592 10.7958C50.1121 11.2346 49.8179 11.6735 49.3766 12.1123C48.9354 12.4049 48.4941 12.6974 47.9058 12.99C47.3174 13.1363 46.582 13.2825 45.8466 13.2825H43.9345V17.9635H42.1694V5.3834H45.8466ZM59.9668 16.5007V17.9635H52.7596V5.3834H54.5246V16.5007H59.9668ZM68.4978 13.2825L66.4386 8.16273C66.4386 8.01645 66.2915 7.87017 66.2915 7.5776C66.2915 7.43132 66.1444 7.13876 66.1444 6.99248C65.9973 7.43132 65.8503 7.87017 65.7032 8.16273L63.644 13.2825H68.4978ZM72.175 17.9635H70.8512C70.7041 17.9635 70.557 17.9635 70.4099 17.8172C70.2628 17.6709 70.2628 17.6709 70.2628 17.5247L69.0861 14.4528H63.3498L62.1731 17.5247C62.1731 17.6709 62.026 17.6709 62.026 17.8172C61.8789 17.9635 61.7319 17.9635 61.5848 17.9635H60.261L65.2619 5.3834H67.0269L72.175 17.9635ZM84.0889 5.3834V17.9635H83.2064C83.0593 17.9635 82.9122 17.9635 82.9122 17.9635C82.7651 17.9635 82.7651 17.8172 82.618 17.6709L75.2638 8.16273C75.2638 8.30901 75.2638 8.45528 75.2638 8.60156C75.2638 8.74784 75.2638 8.89413 75.2638 9.04041V17.9635H73.7929V5.3834H74.6754C74.8225 5.3834 74.8225 5.3834 74.8225 5.3834H74.9696C74.9696 5.3834 75.1167 5.3834 75.1167 5.52968L75.2638 5.67596L82.618 15.1842C82.618 15.0379 82.618 14.8916 82.618 14.7453C82.618 14.5991 82.618 14.4528 82.618 14.3065V5.3834H84.0889ZM96.15 15.3305C96.297 15.3305 96.297 15.3305 96.4441 15.4767L97.1796 16.2081C96.5912 16.7933 96.0029 17.2321 95.2674 17.6709C94.532 17.9635 93.6495 18.1098 92.6199 18.1098C91.7374 18.1098 90.8549 17.9635 90.1194 17.6709C89.384 17.3784 88.7957 16.9395 88.2073 16.3544C87.619 15.7693 87.3248 15.0379 87.0306 14.3065C86.7365 13.5751 86.5894 12.6974 86.5894 11.6734C86.5894 10.7958 86.7365 9.91809 87.0306 9.04041C87.3248 8.30901 87.7661 7.5776 88.3544 6.99248C88.9427 6.40736 89.5311 5.96852 90.2665 5.67596C91.0019 5.3834 91.8845 5.23712 92.767 5.23712C93.6495 5.23712 94.532 5.3834 95.1203 5.67596C95.8558 5.96852 96.4441 6.40736 96.8854 6.8462L96.297 7.5776L96.15 7.72388C96.15 7.72388 96.0029 7.72388 95.8558 7.72388C95.7087 7.72388 95.5616 7.72389 95.4145 7.5776C95.2674 7.43132 95.1203 7.28504 94.8262 7.13876C94.532 6.99248 94.2378 6.84621 93.9437 6.69992C93.5024 6.55364 93.0611 6.55364 92.6199 6.55364C92.0315 6.55364 91.4432 6.69992 90.8549 6.8462C90.2665 7.13876 89.8253 7.43132 89.384 7.87016C88.9427 8.309 88.6486 8.74784 88.5015 9.47924C88.3544 10.0644 88.2073 10.7958 88.2073 11.5272C88.2073 12.2586 88.3544 12.99 88.5015 13.5751C88.7957 14.1602 89.0898 14.7453 89.384 15.1842C89.8253 15.623 90.2665 15.9156 90.7078 16.2081C91.2961 16.5007 91.8845 16.5007 92.4728 16.5007C92.9141 16.5007 93.2082 16.5007 93.5024 16.5007C93.7966 16.5007 94.0908 16.3544 94.3849 16.3544C94.6791 16.2081 94.8262 16.2081 95.1203 16.0619C95.4145 15.9156 95.5616 15.7693 95.8558 15.4767C96.0029 15.3305 96.0029 15.3305 96.15 15.3305ZM100.71 10.942H101.298C101.592 10.942 101.739 10.942 101.886 10.7958C102.033 10.7958 102.18 10.6495 102.328 10.5032L106.593 5.82223C106.74 5.67595 106.887 5.52968 107.034 5.52968C107.181 5.52968 107.328 5.3834 107.476 5.3834H108.946L103.946 10.7958C103.798 10.942 103.651 11.0883 103.651 11.0883C103.504 11.2346 103.357 11.2346 103.357 11.3809C103.504 11.3809 103.651 11.5272 103.798 11.6734C103.946 11.8197 104.093 11.966 104.24 12.1123L109.241 18.1098H107.77C107.623 18.1098 107.623 18.1098 107.476 18.1098C107.328 18.1098 107.328 18.1098 107.328 18.1098L107.181 17.9635L107.034 17.8172L102.622 12.8437C102.475 12.6974 102.328 12.5511 102.18 12.5511C102.033 12.5511 101.886 12.4048 101.592 12.4048H100.857V18.1098H99.0917V5.52968H100.857V10.942H100.71Z" fill="white"/>
<path d="M118.468 0H158.625V23.6988H118.523V0H118.468ZM130.097 5.27862V18.4752H137.704V16.8256H131.944V12.5917H136.617V10.9421H131.944V6.98317H137.595V5.33361L130.097 5.27862ZM138.411 16.7156V18.4202H147.159V16.7706H140.638L146.887 6.98317V5.27862H138.628V6.92819H144.714L138.411 16.7156Z" fill="white"/>
</svg>
