<svg width="159" height="25" viewBox="0 0 159 25" fill="none" xmlns="http://www.w3.org/2000/svg">
<path d="M5.65542 5.88028L1.40503 9.25867V6.70075L5.65542 2.69495" fill="white"/>
<path d="M11.9344 2.69495L14.3011 6.31465L10.9201 9.30693L9.42285 7.47295L9.95415 5.88028" fill="white"/>
<path d="M9.9542 5.88028H5.65552V2.69495H11.9345" fill="white"/>
<path d="M11.9344 2.69495L14.3011 6.31465L10.9201 9.30693L9.42285 7.47295L9.95415 5.88028" fill="white"/>
<path d="M9.9542 5.88028H5.65552V2.69495H11.9345" fill="white"/>
<path d="M12.3691 14.3263L11.4031 10.9479L16.0399 11.9131" fill="white"/>
<path d="M17.9229 11.9132L22.6562 10.8997L21.6902 14.3263" fill="white"/>
<path d="M10.9202 9.30698L16.0399 10.8514L14.3012 6.3147L10.9202 9.30698Z" fill="white"/>
<path d="M28.4045 2.69495L32.6549 6.70075V9.25867L28.4045 5.88028" fill="white"/>
<path d="M22.1255 2.69495H28.4045V5.88028H24.1058" fill="white"/>
<path d="M22.1255 2.69495H28.4045V5.88028H24.1058" fill="white"/>
<path d="M24.1059 5.88028L24.4923 7.52121L23.1882 9.25867L23.1399 9.30693L19.7551 6.32106L22.1256 2.69495" fill="white"/>
<path d="M17.0059 20.4073L21.4011 15.8706L20.58 18.7181L18.1168 22L17.0059 20.9864" fill="white"/>
<path d="M17.0059 20.9864L15.9916 22L13.48 18.7181L12.6589 15.8706L17.0059 20.4073" fill="white"/>
<path d="M32.6549 9.5L30.7229 8.05212L28.6943 9.5H32.6549Z" fill="white"/>
<path d="M1.40503 9.54827L3.33702 8.05212L5.31732 9.54827H1.40503Z" fill="white"/>
<path d="M10.9202 9.30698L16.0399 10.8514L14.3012 6.3147L10.9202 9.30698Z" fill="white"/>
<path d="M17.9719 10.8514L19.759 6.36296V6.3147L17.9719 10.8514Z" fill="white"/>
<path d="M23.14 9.30699L19.7628 6.323L17.9719 10.8514L23.14 9.30699Z" fill="white"/>
<path d="M17.9719 10.8513L17.3923 11.9614L17.0059 12.0096V19.249L21.6909 14.3262L17.9719 11.9131V10.8513Z" fill="white"/>
<path d="M16.6195 11.9614L14.3011 6.3147L16.0399 10.8514V11.9132L12.3208 14.3263C12.3208 14.3263 16.8127 19.056 17.0059 19.2491L17.0542 12.0097L16.6195 11.9614Z" fill="white"/>
<path d="M17.9718 10.8514L19.7589 6.3147H17.0058H14.301L16.0398 10.8514" fill="white"/>
<path d="M16.04 10.8513V11.9131L17.006 12.0096L17.972 11.9131V10.8513" fill="white"/>
<path d="M42.1699 6.05276V18.6425H49.5425V17.0482H43.9305V12.9799H48.4971V11.3855H43.9305V7.64709H49.3774V6.05276H42.1699ZM54.7693 13.6946L57.5753 18.8074L59.446 18.5875L56.585 13.5296C58.2356 13.0898 59.2259 11.7704 59.2259 10.231V9.57129C59.2259 7.59212 57.6854 6.05276 55.2645 6.05276H50.7529V18.6425H52.5135V13.6946H54.7693ZM52.5686 12.1002V7.64709H55.2645C56.695 7.64709 57.4653 8.52672 57.4653 9.79119V10.0111C57.4653 11.2206 56.695 12.1552 55.2645 12.1552L52.5686 12.1002ZM67.4238 17.5979L67.8089 18.8074H69.0744V11.8803H64.7829V13.4746H67.3688V16.0036C66.7635 16.8282 65.7732 17.323 64.7278 17.323C63.2973 17.323 62.417 16.3335 62.417 14.6292V9.95613C62.417 8.25184 63.4624 7.31723 64.9479 7.31723C66.1033 7.31723 66.9836 7.867 67.2587 8.74663L68.9643 8.30682C68.5242 6.71249 67.0386 5.7229 64.9479 5.7229C62.472 5.7229 60.6564 7.26225 60.6564 9.73622V14.8491C60.6564 17.323 62.0319 18.8074 64.3977 18.8074C65.6081 18.9174 66.6535 18.3126 67.4238 17.5979ZM70.5049 9.79119V14.9041C70.5049 17.378 72.4855 18.9174 74.9064 18.9174C77.3272 18.9174 79.3079 17.378 79.3079 14.9041V9.79119C79.3079 7.31723 77.3272 5.77788 74.9064 5.77788C72.4855 5.77788 70.5049 7.31723 70.5049 9.79119ZM72.2655 14.6292V10.0111C72.2655 8.30682 73.4209 7.37221 74.9064 7.37221C76.3369 7.37221 77.4923 8.30682 77.4923 10.0111V14.6292C77.4923 16.3884 76.3369 17.2681 74.9064 17.2681C73.4759 17.323 72.2655 16.3884 72.2655 14.6292ZM80.9585 6.05276V18.6425H85.4151C87.8909 18.6425 89.3765 17.1031 89.3765 14.6292V10.0111C89.3765 7.53714 87.8909 5.99779 85.4151 5.99779H80.9585V6.05276ZM85.4151 17.0482H82.7191V7.64709H85.4151C86.8456 7.64709 87.6159 8.5817 87.6159 10.286V14.4093C87.6159 16.1135 86.8456 17.0482 85.4151 17.0482ZM90.972 9.79119V14.9041C90.972 17.378 92.9527 18.9174 95.3736 18.9174C97.7944 18.9174 99.7751 17.378 99.7751 14.9041V9.79119C99.7751 7.31723 97.7944 5.77788 95.3736 5.77788C92.9527 5.77788 90.972 7.31723 90.972 9.79119ZM92.7877 14.6292V10.0111C92.7877 8.30682 93.9981 7.37221 95.4286 7.37221C96.8591 7.37221 98.0145 8.30682 98.0145 10.0111V14.6292C98.0145 16.3884 96.8591 17.2681 95.4286 17.2681C93.9431 17.323 92.7877 16.3884 92.7877 14.6292ZM110.119 6.05276H107.918L105.277 11.0557L102.636 5.88783L100.545 6.10774L104.177 12.3201L100.435 18.6425H102.636L105.277 13.5296L107.973 18.6425H110.174L106.432 12.2652L110.119 6.05276Z" fill="white"/>
<path d="M115.731 0.5H156.39V24.1951H115.786V0.5H115.731ZM127.505 5.77779V18.9723H135.208V17.3229H129.375V13.0897H134.107V11.4404H129.375V7.48207H135.098V5.83276L127.505 5.77779ZM135.923 17.213V18.9173H144.781V17.268H138.179L144.506 7.48207V5.77779H136.143V7.4271H142.305L135.923 17.213Z" fill="white"/>
</svg>
