<svg width="120" height="120" viewBox="0 0 120 120" fill="none" xmlns="http://www.w3.org/2000/svg">
<g filter="url(#filter0_dd)">
<circle cx="59.75" cy="55.75" r="55.75" fill="white"/>
</g>
<path d="M40.8947 32.861L33.074 39.0772V34.3707L40.8947 27" fill="#242424"/>
<path d="M40.8947 32.861L33.074 39.0772V34.3707L40.8947 27" fill="url(#paint0_radial)"/>
<path d="M52.448 27L56.8027 33.6602L50.5817 39.166L47.8267 35.7915L48.8042 32.861" fill="#242424"/>
<path d="M52.448 27L56.8027 33.6602L50.5817 39.166L47.8267 35.7915L48.8042 32.861" fill="url(#paint1_radial)"/>
<path d="M48.8044 32.861H40.8948V27H52.4481" fill="#242424"/>
<path d="M48.8044 32.861H40.8948V27H52.4481" fill="url(#paint2_radial)"/>
<path d="M52.448 27L56.8027 33.6602L50.5817 39.166L47.8267 35.7915L48.8042 32.861" fill="#242424"/>
<path d="M52.448 27L56.8027 33.6602L50.5817 39.166L47.8267 35.7915L48.8042 32.861" fill="url(#paint3_radial)"/>
<path d="M48.8044 32.861H40.8948V27H52.4481" fill="#242424"/>
<path d="M48.8044 32.861H40.8948V27H52.4481" fill="url(#paint4_radial)"/>
<path d="M53.2479 48.4016L51.4705 42.1854L60.0021 43.9614" fill="#242424"/>
<path d="M53.2479 48.4016L51.4705 42.1854L60.0021 43.9614" fill="url(#paint5_radial)"/>
<path d="M63.4668 43.9614L72.1762 42.0966L70.3988 48.4016" fill="#242424"/>
<path d="M63.4668 43.9614L72.1762 42.0966L70.3988 48.4016" fill="url(#paint6_radial)"/>
<path d="M50.5818 39.166L60.0022 42.0077L56.8028 33.6602L50.5818 39.166Z" fill="#242424"/>
<path d="M50.5818 39.166L60.0022 42.0077L56.8028 33.6602L50.5818 39.166Z" fill="url(#paint7_radial)"/>
<path d="M82.7532 27L90.5739 34.3707V39.0772L82.7532 32.861" fill="#242424"/>
<path d="M82.7532 27L90.5739 34.3707V39.0772L82.7532 32.861" fill="url(#paint8_radial)"/>
<path d="M71.2 27H82.7533V32.861H74.8437" fill="#242424"/>
<path d="M71.2 27H82.7533V32.861H74.8437" fill="url(#paint9_radial)"/>
<path d="M71.2 27H82.7533V32.861H74.8437" fill="#242424"/>
<path d="M71.2 27H82.7533V32.861H74.8437" fill="url(#paint10_radial)"/>
<path d="M74.8438 32.861L75.5547 35.8803L73.1552 39.0772L73.0663 39.166L66.8384 33.672L71.2 27" fill="#242424"/>
<path d="M74.8438 32.861L75.5547 35.8803L73.1552 39.0772L73.0663 39.166L66.8384 33.672L71.2 27" fill="url(#paint11_radial)"/>
<path d="M61.7795 59.5908L69.8669 51.2433L68.356 56.4827L63.8236 62.5213L61.7795 60.6564" fill="#242424"/>
<path d="M61.7795 59.5908L69.8669 51.2433L68.356 56.4827L63.8236 62.5213L61.7795 60.6564" fill="url(#paint12_radial)"/>
<path d="M61.7795 60.6564L59.9132 62.5213L55.2918 56.4827L53.781 51.2433L61.7795 59.5908" fill="#242424"/>
<path d="M61.7795 60.6564L59.9132 62.5213L55.2918 56.4827L53.781 51.2433L61.7795 59.5908" fill="url(#paint13_radial)"/>
<path d="M90.5739 39.5212L87.019 36.8571L83.2864 39.5212H90.5739Z" fill="#242424"/>
<path d="M90.5739 39.5212L87.019 36.8571L83.2864 39.5212H90.5739Z" fill="url(#paint14_radial)"/>
<path d="M33.074 39.61L36.6288 36.8571L40.2726 39.61H33.074Z" fill="#242424"/>
<path d="M33.074 39.61L36.6288 36.8571L40.2726 39.61H33.074Z" fill="url(#paint15_radial)"/>
<path d="M50.5818 39.166L60.0022 42.0077L56.8028 33.6602L50.5818 39.166Z" fill="#242424"/>
<path d="M50.5818 39.166L60.0022 42.0077L56.8028 33.6602L50.5818 39.166Z" fill="url(#paint16_radial)"/>
<path d="M63.5569 42.0077L66.8451 33.749V33.6602L63.5569 42.0077Z" fill="#242424"/>
<path d="M63.5569 42.0077L66.8451 33.749V33.6602L63.5569 42.0077Z" fill="url(#paint17_radial)"/>
<path d="M73.0662 39.166L66.8521 33.6755L63.5569 42.0077L73.0662 39.166Z" fill="#242424"/>
<path d="M73.0662 39.166L66.8521 33.6755L63.5569 42.0077L73.0662 39.166Z" fill="url(#paint18_radial)"/>
<path d="M63.557 42.0078L62.4905 44.0502L61.7795 44.139V57.4595L70.4001 48.4016L63.557 43.9614V42.0078Z" fill="#242424"/>
<path d="M63.557 42.0078L62.4905 44.0502L61.7795 44.139V57.4595L70.4001 48.4016L63.557 43.9614V42.0078Z" fill="url(#paint19_radial)"/>
<path d="M61.0685 44.0502L56.8027 33.6602L60.0021 42.0077V43.9614L53.1589 48.4016C53.1589 48.4016 61.424 57.1043 61.7795 57.4595L61.8684 44.139L61.0685 44.0502Z" fill="#242424"/>
<path d="M61.0685 44.0502L56.8027 33.6602L60.0021 42.0077V43.9614L53.1589 48.4016C53.1589 48.4016 61.424 57.1043 61.7795 57.4595L61.8684 44.139L61.0685 44.0502Z" fill="url(#paint20_radial)"/>
<path d="M63.557 42.0077L66.8452 33.6602H61.7795H56.8027L60.0021 42.0077" fill="#242424"/>
<path d="M63.557 42.0077L66.8452 33.6602H61.7795H56.8027L60.0021 42.0077" fill="url(#paint21_radial)"/>
<path d="M60.0022 42.0078V43.9614L61.7796 44.139L63.5571 43.9614V42.0078" fill="#242424"/>
<path d="M60.0022 42.0078V43.9614L61.7796 44.139L63.5571 43.9614V42.0078" fill="url(#paint22_radial)"/>
<path d="M27.1726 74.1401V81.7789H31.6459V80.8116H28.2409V78.3431H31.0116V77.3758H28.2409V75.1075H31.5458V74.1401H27.1726ZM34.8173 78.7768L36.5198 81.879L37.6548 81.7456L35.9189 78.6767C36.9204 78.4099 37.5213 77.6093 37.5213 76.6753V76.275C37.5213 75.0741 36.5866 74.1401 35.1177 74.1401H32.3803V81.7789H33.4486V78.7768H34.8173ZM33.482 77.8094V75.1075H35.1177C35.9857 75.1075 36.453 75.6412 36.453 76.4084V76.5419C36.453 77.2757 35.9857 77.8428 35.1177 77.8428L33.482 77.8094ZM42.4953 81.1451L42.729 81.879H43.4968V77.676H40.893V78.6434H42.4619V80.1778C42.0947 80.6781 41.4938 80.9784 40.8596 80.9784C39.9916 80.9784 39.4575 80.3779 39.4575 79.3439V76.5085C39.4575 75.4744 40.0918 74.9074 40.9931 74.9074C41.6941 74.9074 42.2283 75.2409 42.3952 75.7746L43.43 75.5078C43.163 74.5404 42.2617 73.94 40.9931 73.94C39.4909 73.94 38.3892 74.874 38.3892 76.3751V79.4773C38.3892 80.9784 39.2238 81.879 40.6593 81.879C41.3937 81.9457 42.028 81.5788 42.4953 81.1451ZM44.3648 76.4084V79.5106C44.3648 81.0117 45.5665 81.9457 47.0354 81.9457C48.5042 81.9457 49.706 81.0117 49.706 79.5106V76.4084C49.706 74.9074 48.5042 73.9734 47.0354 73.9734C45.5665 73.9734 44.3648 74.9074 44.3648 76.4084ZM45.433 79.3439V76.5419C45.433 75.5078 46.1341 74.9407 47.0354 74.9407C47.9033 74.9407 48.6044 75.5078 48.6044 76.5419V79.3439C48.6044 80.4113 47.9033 80.945 47.0354 80.945C46.1674 80.9784 45.433 80.4113 45.433 79.3439ZM50.7075 74.1401V81.7789H53.4115C54.9137 81.7789 55.8151 80.8449 55.8151 79.3439V76.5419C55.8151 75.0408 54.9137 74.1068 53.4115 74.1068H50.7075V74.1401ZM53.4115 80.8116H51.7758V75.1075H53.4115C54.2795 75.1075 54.7468 75.6746 54.7468 76.7086V79.2104C54.7468 80.2445 54.2795 80.8116 53.4115 80.8116ZM56.7832 76.4084V79.5106C56.7832 81.0117 57.985 81.9457 59.4538 81.9457C60.9227 81.9457 62.1244 81.0117 62.1244 79.5106V76.4084C62.1244 74.9074 60.9227 73.9734 59.4538 73.9734C57.985 73.9734 56.7832 74.9074 56.7832 76.4084ZM57.8848 79.3439V76.5419C57.8848 75.5078 58.6192 74.9407 59.4872 74.9407C60.3551 74.9407 61.0562 75.5078 61.0562 76.5419V79.3439C61.0562 80.4113 60.3551 80.945 59.4872 80.945C58.5859 80.9784 57.8848 80.4113 57.8848 79.3439ZM68.4004 74.1401H67.0651L65.4627 77.1756L63.8603 74.0401L62.5918 74.1735L64.7951 77.9429L62.525 81.7789H63.8603L65.4627 78.6767L67.0985 81.7789H68.4338L66.1638 77.9095L68.4004 74.1401Z" fill="#242424"/>
<path d="M27.1726 74.1401V81.7789H31.6459V80.8116H28.2409V78.3431H31.0116V77.3758H28.2409V75.1075H31.5458V74.1401H27.1726ZM34.8173 78.7768L36.5198 81.879L37.6548 81.7456L35.9189 78.6767C36.9204 78.4099 37.5213 77.6093 37.5213 76.6753V76.275C37.5213 75.0741 36.5866 74.1401 35.1177 74.1401H32.3803V81.7789H33.4486V78.7768H34.8173ZM33.482 77.8094V75.1075H35.1177C35.9857 75.1075 36.453 75.6412 36.453 76.4084V76.5419C36.453 77.2757 35.9857 77.8428 35.1177 77.8428L33.482 77.8094ZM42.4953 81.1451L42.729 81.879H43.4968V77.676H40.893V78.6434H42.4619V80.1778C42.0947 80.6781 41.4938 80.9784 40.8596 80.9784C39.9916 80.9784 39.4575 80.3779 39.4575 79.3439V76.5085C39.4575 75.4744 40.0918 74.9074 40.9931 74.9074C41.6941 74.9074 42.2283 75.2409 42.3952 75.7746L43.43 75.5078C43.163 74.5404 42.2617 73.94 40.9931 73.94C39.4909 73.94 38.3892 74.874 38.3892 76.3751V79.4773C38.3892 80.9784 39.2238 81.879 40.6593 81.879C41.3937 81.9457 42.028 81.5788 42.4953 81.1451ZM44.3648 76.4084V79.5106C44.3648 81.0117 45.5665 81.9457 47.0354 81.9457C48.5042 81.9457 49.706 81.0117 49.706 79.5106V76.4084C49.706 74.9074 48.5042 73.9734 47.0354 73.9734C45.5665 73.9734 44.3648 74.9074 44.3648 76.4084ZM45.433 79.3439V76.5419C45.433 75.5078 46.1341 74.9407 47.0354 74.9407C47.9033 74.9407 48.6044 75.5078 48.6044 76.5419V79.3439C48.6044 80.4113 47.9033 80.945 47.0354 80.945C46.1674 80.9784 45.433 80.4113 45.433 79.3439ZM50.7075 74.1401V81.7789H53.4115C54.9137 81.7789 55.8151 80.8449 55.8151 79.3439V76.5419C55.8151 75.0408 54.9137 74.1068 53.4115 74.1068H50.7075V74.1401ZM53.4115 80.8116H51.7758V75.1075H53.4115C54.2795 75.1075 54.7468 75.6746 54.7468 76.7086V79.2104C54.7468 80.2445 54.2795 80.8116 53.4115 80.8116ZM56.7832 76.4084V79.5106C56.7832 81.0117 57.985 81.9457 59.4538 81.9457C60.9227 81.9457 62.1244 81.0117 62.1244 79.5106V76.4084C62.1244 74.9074 60.9227 73.9734 59.4538 73.9734C57.985 73.9734 56.7832 74.9074 56.7832 76.4084ZM57.8848 79.3439V76.5419C57.8848 75.5078 58.6192 74.9407 59.4872 74.9407C60.3551 74.9407 61.0562 75.5078 61.0562 76.5419V79.3439C61.0562 80.4113 60.3551 80.945 59.4872 80.945C58.5859 80.9784 57.8848 80.4113 57.8848 79.3439ZM68.4004 74.1401H67.0651L65.4627 77.1756L63.8603 74.0401L62.5918 74.1735L64.7951 77.9429L62.525 81.7789H63.8603L65.4627 78.6767L67.0985 81.7789H68.4338L66.1638 77.9095L68.4004 74.1401Z" fill="url(#paint23_radial)"/>
<path d="M71.8054 70.7711H96.4753V85.148H71.8388V70.7711H71.8054ZM78.9493 73.9733V81.9791H83.6229V80.9783H80.0844V78.4098H82.9553V77.4091H80.0844V75.0074H83.5562V74.0067L78.9493 73.9733ZM84.0569 80.9116V81.9457H89.4316V80.945H85.4256L89.2646 75.0074V73.9733H84.1905V74.9741H87.9293L84.0569 80.9116Z" fill="#242424"/>
<path d="M71.8054 70.7711H96.4753V85.148H71.8388V70.7711H71.8054ZM78.9493 73.9733V81.9791H83.6229V80.9783H80.0844V78.4098H82.9553V77.4091H80.0844V75.0074H83.5562V74.0067L78.9493 73.9733ZM84.0569 80.9116V81.9457H89.4316V80.945H85.4256L89.2646 75.0074V73.9733H84.1905V74.9741H87.9293L84.0569 80.9116Z" fill="url(#paint24_radial)"/>
<defs>
<filter id="filter0_dd" x="0" y="0" width="119.5" height="119.5" filterUnits="userSpaceOnUse" color-interpolation-filters="sRGB">
<feFlood flood-opacity="0" result="BackgroundImageFix"/>
<feColorMatrix in="SourceAlpha" type="matrix" values="0 0 0 0 0 0 0 0 0 0 0 0 0 0 0 0 0 0 127 0"/>
<feOffset dy="4"/>
<feGaussianBlur stdDeviation="2"/>
<feColorMatrix type="matrix" values="0 0 0 0 0 0 0 0 0 0 0 0 0 0 0 0 0 0 0.07 0"/>
<feBlend mode="normal" in2="BackgroundImageFix" result="effect1_dropShadow"/>
<feColorMatrix in="SourceAlpha" type="matrix" values="0 0 0 0 0 0 0 0 0 0 0 0 0 0 0 0 0 0 127 0"/>
<feOffset dy="3"/>
<feGaussianBlur stdDeviation="1"/>
<feColorMatrix type="matrix" values="0 0 0 0 0 0 0 0 0 0 0 0 0 0 0 0 0 0 0.056 0"/>
<feBlend mode="normal" in2="effect1_dropShadow" result="effect2_dropShadow"/>
<feBlend mode="normal" in="SourceGraphic" in2="effect2_dropShadow" result="shape"/>
</filter>
<radialGradient id="paint0_radial" cx="0" cy="0" r="1" gradientUnits="userSpaceOnUse" gradientTransform="translate(38.8936 22.6729) rotate(90) scale(25.6149 16.5871)">
<stop stop-color="#686868"/>
<stop offset="1" stop-color="#878787" stop-opacity="0"/>
</radialGradient>
<radialGradient id="paint1_radial" cx="0" cy="0" r="1" gradientUnits="userSpaceOnUse" gradientTransform="translate(54.506 22.6411) rotate(90) scale(25.8033 19.0375)">
<stop stop-color="#686868"/>
<stop offset="1" stop-color="#878787" stop-opacity="0"/>
</radialGradient>
<radialGradient id="paint2_radial" cx="0" cy="0" r="1" gradientUnits="userSpaceOnUse" gradientTransform="translate(49.492 24.9001) rotate(90) scale(12.4308 24.5037)">
<stop stop-color="#686868"/>
<stop offset="1" stop-color="#878787" stop-opacity="0"/>
</radialGradient>
<radialGradient id="paint3_radial" cx="0" cy="0" r="1" gradientUnits="userSpaceOnUse" gradientTransform="translate(54.506 22.6411) rotate(90) scale(25.8033 19.0375)">
<stop stop-color="#686868"/>
<stop offset="1" stop-color="#878787" stop-opacity="0"/>
</radialGradient>
<radialGradient id="paint4_radial" cx="0" cy="0" r="1" gradientUnits="userSpaceOnUse" gradientTransform="translate(49.492 24.9001) rotate(90) scale(12.4308 24.5037)">
<stop stop-color="#686868"/>
<stop offset="1" stop-color="#878787" stop-opacity="0"/>
</radialGradient>
<radialGradient id="paint5_radial" cx="0" cy="0" r="1" gradientUnits="userSpaceOnUse" gradientTransform="translate(57.8192 39.9582) rotate(90) scale(13.1841 18.095)">
<stop stop-color="#686868"/>
<stop offset="1" stop-color="#878787" stop-opacity="0"/>
</radialGradient>
<radialGradient id="paint6_radial" cx="0" cy="0" r="1" gradientUnits="userSpaceOnUse" gradientTransform="translate(69.9478 39.8375) rotate(90) scale(13.3725 18.472)">
<stop stop-color="#686868"/>
<stop offset="1" stop-color="#878787" stop-opacity="0"/>
</radialGradient>
<radialGradient id="paint7_radial" cx="0" cy="0" r="1" gradientUnits="userSpaceOnUse" gradientTransform="translate(57.5918 30.6694) rotate(90) scale(17.7044 19.9799)">
<stop stop-color="#686868"/>
<stop offset="1" stop-color="#878787" stop-opacity="0"/>
</radialGradient>
<radialGradient id="paint8_radial" cx="0" cy="0" r="1" gradientUnits="userSpaceOnUse" gradientTransform="translate(88.5728 22.6729) rotate(90) scale(25.6149 16.5871)">
<stop stop-color="#686868"/>
<stop offset="1" stop-color="#878787" stop-opacity="0"/>
</radialGradient>
<radialGradient id="paint9_radial" cx="0" cy="0" r="1" gradientUnits="userSpaceOnUse" gradientTransform="translate(79.7972 24.9001) rotate(90) scale(12.4308 24.5037)">
<stop stop-color="#686868"/>
<stop offset="1" stop-color="#878787" stop-opacity="0"/>
</radialGradient>
<radialGradient id="paint10_radial" cx="0" cy="0" r="1" gradientUnits="userSpaceOnUse" gradientTransform="translate(79.7972 24.9001) rotate(90) scale(12.4308 24.5037)">
<stop stop-color="#686868"/>
<stop offset="1" stop-color="#878787" stop-opacity="0"/>
</radialGradient>
<radialGradient id="paint11_radial" cx="0" cy="0" r="1" gradientUnits="userSpaceOnUse" gradientTransform="translate(73.3245 22.6411) rotate(90) scale(25.8033 18.4867)">
<stop stop-color="#686868"/>
<stop offset="1" stop-color="#878787" stop-opacity="0"/>
</radialGradient>
<radialGradient id="paint12_radial" cx="0" cy="0" r="1" gradientUnits="userSpaceOnUse" gradientTransform="translate(67.7976 47.2025) rotate(90) scale(23.9198 17.1526)">
<stop stop-color="#686868"/>
<stop offset="1" stop-color="#878787" stop-opacity="0"/>
</radialGradient>
<radialGradient id="paint13_radial" cx="0" cy="0" r="1" gradientUnits="userSpaceOnUse" gradientTransform="translate(59.7329 47.2025) rotate(90) scale(23.9198 16.9641)">
<stop stop-color="#686868"/>
<stop offset="1" stop-color="#878787" stop-opacity="0"/>
</radialGradient>
<radialGradient id="paint14_radial" cx="0" cy="0" r="1" gradientUnits="userSpaceOnUse" gradientTransform="translate(88.7092 35.9026) rotate(90) scale(5.65035 15.4562)">
<stop stop-color="#686868"/>
<stop offset="1" stop-color="#878787" stop-opacity="0"/>
</radialGradient>
<radialGradient id="paint15_radial" cx="0" cy="0" r="1" gradientUnits="userSpaceOnUse" gradientTransform="translate(38.4307 35.8708) rotate(90) scale(5.83869 15.2677)">
<stop stop-color="#686868"/>
<stop offset="1" stop-color="#878787" stop-opacity="0"/>
</radialGradient>
<radialGradient id="paint16_radial" cx="0" cy="0" r="1" gradientUnits="userSpaceOnUse" gradientTransform="translate(57.5918 30.6694) rotate(90) scale(17.7044 19.9799)">
<stop stop-color="#686868"/>
<stop offset="1" stop-color="#878787" stop-opacity="0"/>
</radialGradient>
<radialGradient id="paint17_radial" cx="0" cy="0" r="1" gradientUnits="userSpaceOnUse" gradientTransform="translate(66.0038 30.6694) rotate(90) scale(17.7044 6.97413)">
<stop stop-color="#686868"/>
<stop offset="1" stop-color="#878787" stop-opacity="0"/>
</radialGradient>
<radialGradient id="paint18_radial" cx="0" cy="0" r="1" gradientUnits="userSpaceOnUse" gradientTransform="translate(70.6331 30.6901) rotate(90) scale(17.6721 20.1684)">
<stop stop-color="#686868"/>
<stop offset="1" stop-color="#878787" stop-opacity="0"/>
</radialGradient>
<radialGradient id="paint19_radial" cx="0" cy="0" r="1" gradientUnits="userSpaceOnUse" gradientTransform="translate(68.1944 36.4716) rotate(90) scale(32.772 18.2835)">
<stop stop-color="#686868"/>
<stop offset="1" stop-color="#878787" stop-opacity="0"/>
</radialGradient>
<radialGradient id="paint20_radial" cx="0" cy="0" r="1" gradientUnits="userSpaceOnUse" gradientTransform="translate(59.6399 25.1332) rotate(90) scale(50.4764 18.472)">
<stop stop-color="#686868"/>
<stop offset="1" stop-color="#878787" stop-opacity="0"/>
</radialGradient>
<radialGradient id="paint21_radial" cx="0" cy="0" r="1" gradientUnits="userSpaceOnUse" gradientTransform="translate(64.2757 30.6694) rotate(90) scale(17.7044 21.2994)">
<stop stop-color="#686868"/>
<stop offset="1" stop-color="#878787" stop-opacity="0"/>
</radialGradient>
<radialGradient id="paint22_radial" cx="0" cy="0" r="1" gradientUnits="userSpaceOnUse" gradientTransform="translate(62.6475 41.2441) rotate(90) scale(4.52028 7.5396)">
<stop stop-color="#686868"/>
<stop offset="1" stop-color="#878787" stop-opacity="0"/>
</radialGradient>
<radialGradient id="paint23_radial" cx="0" cy="0" r="1" gradientUnits="userSpaceOnUse" gradientTransform="translate(57.8765 71.0717) rotate(90) scale(16.9795 87.5118)">
<stop stop-color="#686868"/>
<stop offset="1" stop-color="#878787" stop-opacity="0"/>
</radialGradient>
<radialGradient id="paint24_radial" cx="0" cy="0" r="1" gradientUnits="userSpaceOnUse" gradientTransform="translate(90.1632 65.62) rotate(90) scale(30.4924 52.323)">
<stop stop-color="#686868"/>
<stop offset="1" stop-color="#878787" stop-opacity="0"/>
</radialGradient>
</defs>
</svg>
