<svg width="120" height="120" viewBox="0 0 120 120" fill="none" xmlns="http://www.w3.org/2000/svg">
<g filter="url(#filter0_dd)">
<circle cx="60.2419" cy="56.25" r="55.75" fill="white"/>
</g>
<path d="M40.4429 26.5H39.9429V27V84.7211V85.2211H40.4429H69.3011C69.9099 85.2267 70.4797 84.9085 70.7915 84.3779L70.7938 84.3738C71.0986 83.8437 71.0986 83.1935 70.7938 82.6634L70.7914 82.6594C70.4797 82.1287 69.9099 81.8106 69.3011 81.8161H43.3479V29.905H63.9933V46.2404V46.7404H64.4933H80.8287V69.0859C80.8231 69.6948 81.1413 70.2646 81.6719 70.5764L81.676 70.5787C82.2061 70.8835 82.8563 70.8835 83.3864 70.5787L83.3904 70.5763C83.9211 70.2646 84.2393 69.6948 84.2337 69.0859V44.5493V44.3575L84.1054 44.2148L83.7672 43.8391L83.7584 43.8293L83.7491 43.82L66.9137 26.9847L66.9044 26.9754L66.8947 26.9666L66.5189 26.6284L66.3763 26.5H66.1844H40.4429ZM93.2445 59.6839L92.8286 59.422L92.5596 59.8334L91.9208 60.8104L91.9187 60.8136L78.2213 82.1126L69.2655 73.9808L69.2638 73.9792L68.3636 73.1541L67.9947 72.8159L67.6569 73.1851L66.041 74.9513L65.7109 75.3121L66.0643 75.6502L66.9286 76.4769L66.9284 76.477L66.9383 76.486L77.4228 85.9934L77.4257 85.996L78.4779 86.9355L78.9204 87.3306L79.2349 86.8275L79.9827 85.6309L79.9865 85.625L94.7887 62.6703L94.7888 62.6703L94.7917 62.6657L95.4305 61.6511L95.6969 61.228L95.2738 60.9615L93.2445 59.6839ZM67.3984 43.3353V32.3408L78.3929 43.3353H67.3984Z" fill="#242424"/>
<path d="M40.4429 26.5H39.9429V27V84.7211V85.2211H40.4429H69.3011C69.9099 85.2267 70.4797 84.9085 70.7915 84.3779L70.7938 84.3738C71.0986 83.8437 71.0986 83.1935 70.7938 82.6634L70.7914 82.6594C70.4797 82.1287 69.9099 81.8106 69.3011 81.8161H43.3479V29.905H63.9933V46.2404V46.7404H64.4933H80.8287V69.0859C80.8231 69.6948 81.1413 70.2646 81.6719 70.5764L81.676 70.5787C82.2061 70.8835 82.8563 70.8835 83.3864 70.5787L83.3904 70.5763C83.9211 70.2646 84.2393 69.6948 84.2337 69.0859V44.5493V44.3575L84.1054 44.2148L83.7672 43.8391L83.7584 43.8293L83.7491 43.82L66.9137 26.9847L66.9044 26.9754L66.8947 26.9666L66.5189 26.6284L66.3763 26.5H66.1844H40.4429ZM93.2445 59.6839L92.8286 59.422L92.5596 59.8334L91.9208 60.8104L91.9187 60.8136L78.2213 82.1126L69.2655 73.9808L69.2638 73.9792L68.3636 73.1541L67.9947 72.8159L67.6569 73.1851L66.041 74.9513L65.7109 75.3121L66.0643 75.6502L66.9286 76.4769L66.9284 76.477L66.9383 76.486L77.4228 85.9934L77.4257 85.996L78.4779 86.9355L78.9204 87.3306L79.2349 86.8275L79.9827 85.6309L79.9865 85.625L94.7887 62.6703L94.7888 62.6703L94.7917 62.6657L95.4305 61.6511L95.6969 61.228L95.2738 60.9615L93.2445 59.6839ZM67.3984 43.3353V32.3408L78.3929 43.3353H67.3984Z" fill="url(#paint0_radial)"/>
<path d="M40.4429 26.5H39.9429V27V84.7211V85.2211H40.4429H69.3011C69.9099 85.2267 70.4797 84.9085 70.7915 84.3779L70.7938 84.3738C71.0986 83.8437 71.0986 83.1935 70.7938 82.6634L70.7914 82.6594C70.4797 82.1287 69.9099 81.8106 69.3011 81.8161H43.3479V29.905H63.9933V46.2404V46.7404H64.4933H80.8287V69.0859C80.8231 69.6948 81.1413 70.2646 81.6719 70.5764L81.676 70.5787C82.2061 70.8835 82.8563 70.8835 83.3864 70.5787L83.3904 70.5763C83.9211 70.2646 84.2393 69.6948 84.2337 69.0859V44.5493V44.3575L84.1054 44.2148L83.7672 43.8391L83.7584 43.8293L83.7491 43.82L66.9137 26.9847L66.9044 26.9754L66.8947 26.9666L66.5189 26.6284L66.3763 26.5H66.1844H40.4429ZM93.2445 59.6839L92.8286 59.422L92.5596 59.8334L91.9208 60.8104L91.9187 60.8136L78.2213 82.1126L69.2655 73.9808L69.2638 73.9792L68.3636 73.1541L67.9947 72.8159L67.6569 73.1851L66.041 74.9513L65.7109 75.3121L66.0643 75.6502L66.9286 76.4769L66.9284 76.477L66.9383 76.486L77.4228 85.9934L77.4257 85.996L78.4779 86.9355L78.9204 87.3306L79.2349 86.8275L79.9827 85.6309L79.9865 85.625L94.7887 62.6703L94.7888 62.6703L94.7917 62.6657L95.4305 61.6511L95.6969 61.228L95.2738 60.9615L93.2445 59.6839ZM67.3984 43.3353V32.3408L78.3929 43.3353H67.3984Z" stroke="#5A5A5A"/>
<defs>
<filter id="filter0_dd" x="0.491943" y="0.5" width="119.5" height="119.5" filterUnits="userSpaceOnUse" color-interpolation-filters="sRGB">
<feFlood flood-opacity="0" result="BackgroundImageFix"/>
<feColorMatrix in="SourceAlpha" type="matrix" values="0 0 0 0 0 0 0 0 0 0 0 0 0 0 0 0 0 0 127 0"/>
<feOffset dy="4"/>
<feGaussianBlur stdDeviation="2"/>
<feColorMatrix type="matrix" values="0 0 0 0 0 0 0 0 0 0 0 0 0 0 0 0 0 0 0.07 0"/>
<feBlend mode="normal" in2="BackgroundImageFix" result="effect1_dropShadow"/>
<feColorMatrix in="SourceAlpha" type="matrix" values="0 0 0 0 0 0 0 0 0 0 0 0 0 0 0 0 0 0 127 0"/>
<feOffset dy="3"/>
<feGaussianBlur stdDeviation="1"/>
<feColorMatrix type="matrix" values="0 0 0 0 0 0 0 0 0 0 0 0 0 0 0 0 0 0 0.056 0"/>
<feBlend mode="normal" in2="effect1_dropShadow" result="effect2_dropShadow"/>
<feBlend mode="normal" in="SourceGraphic" in2="effect2_dropShadow" result="shape"/>
</filter>
<radialGradient id="paint0_radial" cx="0" cy="0" r="1" gradientUnits="userSpaceOnUse" gradientTransform="translate(81.0462 5.6595) rotate(90) scale(126.328 115.727)">
<stop stop-color="#686868"/>
<stop offset="1" stop-color="#878787" stop-opacity="0"/>
</radialGradient>
</defs>
</svg>
