<svg width="120" height="120" viewBox="0 0 120 120" fill="none" xmlns="http://www.w3.org/2000/svg">
<g filter="url(#filter0_dd)">
<circle cx="60.1975" cy="55.75" r="55.75" fill="white"/>
</g>
<path d="M29.2307 78.0303C29.4984 78.0303 29.7661 78.0303 30.0338 77.9415C30.3015 77.8528 30.48 77.7641 30.5692 77.5866C30.7477 77.4091 30.8369 77.3203 30.9261 77.0541C31.0153 76.8766 31.0153 76.6104 31.0153 76.4329C31.0153 75.9892 30.8369 75.5455 30.5692 75.2793C30.3015 75.0131 29.8554 74.8356 29.2307 74.8356H28.0708V77.9415H29.2307V78.0303ZM29.2307 74.0369C29.6769 74.0369 30.123 74.1257 30.48 74.2144C30.8369 74.3031 31.1046 74.4806 31.3723 74.6581C31.64 74.8356 31.8184 75.1018 31.9076 75.368C31.9969 75.6343 32.0861 75.9892 32.0861 76.3442C32.0861 76.6992 31.9969 77.0541 31.9076 77.3203C31.8184 77.5866 31.64 77.8528 31.3723 78.119C31.1046 78.2965 30.8369 78.474 30.48 78.6515C30.123 78.7402 29.6769 78.8289 29.2307 78.8289H28.0708V81.6687H27V74.0369H29.2307ZM37.7968 80.7813V81.6687H33.4246V74.0369H34.4953V80.7813H37.7968ZM42.9722 78.8289L41.7229 75.723C41.7229 75.6343 41.6337 75.5455 41.6337 75.368C41.6337 75.2793 41.5445 75.1018 41.5445 75.0131C41.4552 75.2793 41.366 75.5455 41.2768 75.723L40.0276 78.8289H42.9722ZM45.2029 81.6687H44.3998C44.3106 81.6687 44.2214 81.6687 44.1321 81.5799C44.0429 81.4912 44.0429 81.4912 44.0429 81.4024L43.3291 79.5389H39.8491L39.1353 81.4024C39.1353 81.4912 39.046 81.4912 39.046 81.5799C38.9568 81.6687 38.8676 81.6687 38.7783 81.6687H37.9753L41.0091 74.0369H42.0799L45.2029 81.6687ZM52.4305 74.0369V81.6687H51.8951C51.8059 81.6687 51.7167 81.6687 51.7167 81.6687C51.6275 81.6687 51.6275 81.5799 51.5382 81.4912L47.0767 75.723C47.0767 75.8117 47.0767 75.9005 47.0767 75.9892C47.0767 76.078 47.0767 76.1667 47.0767 76.2555V81.6687H46.1844V74.0369H46.7198C46.809 74.0369 46.809 74.0369 46.809 74.0369H46.8983C46.8983 74.0369 46.9875 74.0369 46.9875 74.1257L47.0767 74.2144L51.5382 79.9826C51.5382 79.8938 51.5382 79.8051 51.5382 79.7164C51.5382 79.6276 51.5382 79.5389 51.5382 79.4501V74.0369H52.4305ZM59.7474 80.0713C59.8366 80.0713 59.8366 80.0713 59.9258 80.1601L60.372 80.6038C60.0151 80.9587 59.6581 81.225 59.212 81.4912C58.7659 81.6687 58.2305 81.7574 57.6059 81.7574C57.0705 81.7574 56.5351 81.6687 56.089 81.4912C55.6428 81.3137 55.2859 81.0475 54.929 80.6925C54.572 80.3375 54.3936 79.8938 54.2151 79.4501C54.0367 79.0064 53.9474 78.474 53.9474 77.8528C53.9474 77.3203 54.0367 76.7879 54.2151 76.2555C54.3936 75.8117 54.6613 75.368 55.0182 75.0131C55.3751 74.6581 55.732 74.3919 56.1782 74.2144C56.6243 74.0369 57.1597 73.9482 57.6951 73.9482C58.2305 73.9482 58.7659 74.0369 59.1228 74.2144C59.5689 74.3919 59.9258 74.6581 60.1935 74.9243L59.8366 75.368L59.7474 75.4568C59.7474 75.4568 59.6582 75.4568 59.5689 75.4568C59.4797 75.4568 59.3905 75.4568 59.3012 75.368C59.212 75.2793 59.1228 75.1906 58.9443 75.1018C58.7659 75.0131 58.5874 74.9243 58.4089 74.8356C58.1412 74.7469 57.8736 74.7468 57.6059 74.7468C57.2489 74.7468 56.892 74.8356 56.5351 74.9243C56.1782 75.1018 55.9105 75.2793 55.6428 75.5455C55.3751 75.8117 55.1967 76.078 55.1074 76.5217C55.0182 76.8766 54.929 77.3203 54.929 77.7641C54.929 78.2078 55.0182 78.6515 55.1074 79.0064C55.2859 79.3614 55.4643 79.7164 55.6428 79.9826C55.9105 80.2488 56.1782 80.4263 56.4459 80.6038C56.8028 80.7813 57.1597 80.7813 57.5166 80.7813C57.7843 80.7813 57.9628 80.7813 58.1412 80.7813C58.3197 80.7813 58.4982 80.6925 58.6766 80.6925C58.8551 80.6038 58.9443 80.6038 59.1228 80.515C59.3012 80.4263 59.3905 80.3376 59.5689 80.1601C59.6582 80.0713 59.6582 80.0713 59.7474 80.0713ZM62.5135 77.4091H62.8704C63.0489 77.4091 63.1381 77.4091 63.2273 77.3203C63.3166 77.3203 63.4058 77.2316 63.495 77.1429L66.0827 74.3031C66.1719 74.2144 66.2612 74.1257 66.3504 74.1257C66.4396 74.1257 66.5289 74.0369 66.6181 74.0369H67.5104L64.4766 77.3203C64.3873 77.4091 64.2981 77.4978 64.2981 77.4978C64.2089 77.5866 64.1196 77.5866 64.1196 77.6753C64.2089 77.6753 64.2981 77.764 64.3873 77.8528C64.4766 77.9415 64.5658 78.0303 64.655 78.119L67.6888 81.7574H66.7965C66.7073 81.7574 66.7073 81.7574 66.6181 81.7574C66.5289 81.7574 66.5289 81.7574 66.5289 81.7574L66.4396 81.6687L66.3504 81.5799L63.6735 78.5627C63.5843 78.474 63.495 78.3852 63.4058 78.3852C63.3166 78.3852 63.2274 78.2965 63.0489 78.2965H62.6027V81.7574H61.532V74.1257H62.6027V77.4091H62.5135Z" fill="#242424"/>
<path d="M29.2307 78.0303C29.4984 78.0303 29.7661 78.0303 30.0338 77.9415C30.3015 77.8528 30.48 77.7641 30.5692 77.5866C30.7477 77.4091 30.8369 77.3203 30.9261 77.0541C31.0153 76.8766 31.0153 76.6104 31.0153 76.4329C31.0153 75.9892 30.8369 75.5455 30.5692 75.2793C30.3015 75.0131 29.8554 74.8356 29.2307 74.8356H28.0708V77.9415H29.2307V78.0303ZM29.2307 74.0369C29.6769 74.0369 30.123 74.1257 30.48 74.2144C30.8369 74.3031 31.1046 74.4806 31.3723 74.6581C31.64 74.8356 31.8184 75.1018 31.9076 75.368C31.9969 75.6343 32.0861 75.9892 32.0861 76.3442C32.0861 76.6992 31.9969 77.0541 31.9076 77.3203C31.8184 77.5866 31.64 77.8528 31.3723 78.119C31.1046 78.2965 30.8369 78.474 30.48 78.6515C30.123 78.7402 29.6769 78.8289 29.2307 78.8289H28.0708V81.6687H27V74.0369H29.2307ZM37.7968 80.7813V81.6687H33.4246V74.0369H34.4953V80.7813H37.7968ZM42.9722 78.8289L41.7229 75.723C41.7229 75.6343 41.6337 75.5455 41.6337 75.368C41.6337 75.2793 41.5445 75.1018 41.5445 75.0131C41.4552 75.2793 41.366 75.5455 41.2768 75.723L40.0276 78.8289H42.9722ZM45.2029 81.6687H44.3998C44.3106 81.6687 44.2214 81.6687 44.1321 81.5799C44.0429 81.4912 44.0429 81.4912 44.0429 81.4024L43.3291 79.5389H39.8491L39.1353 81.4024C39.1353 81.4912 39.046 81.4912 39.046 81.5799C38.9568 81.6687 38.8676 81.6687 38.7783 81.6687H37.9753L41.0091 74.0369H42.0799L45.2029 81.6687ZM52.4305 74.0369V81.6687H51.8951C51.8059 81.6687 51.7167 81.6687 51.7167 81.6687C51.6275 81.6687 51.6275 81.5799 51.5382 81.4912L47.0767 75.723C47.0767 75.8117 47.0767 75.9005 47.0767 75.9892C47.0767 76.078 47.0767 76.1667 47.0767 76.2555V81.6687H46.1844V74.0369H46.7198C46.809 74.0369 46.809 74.0369 46.809 74.0369H46.8983C46.8983 74.0369 46.9875 74.0369 46.9875 74.1257L47.0767 74.2144L51.5382 79.9826C51.5382 79.8938 51.5382 79.8051 51.5382 79.7164C51.5382 79.6276 51.5382 79.5389 51.5382 79.4501V74.0369H52.4305ZM59.7474 80.0713C59.8366 80.0713 59.8366 80.0713 59.9258 80.1601L60.372 80.6038C60.0151 80.9587 59.6581 81.225 59.212 81.4912C58.7659 81.6687 58.2305 81.7574 57.6059 81.7574C57.0705 81.7574 56.5351 81.6687 56.089 81.4912C55.6428 81.3137 55.2859 81.0475 54.929 80.6925C54.572 80.3375 54.3936 79.8938 54.2151 79.4501C54.0367 79.0064 53.9474 78.474 53.9474 77.8528C53.9474 77.3203 54.0367 76.7879 54.2151 76.2555C54.3936 75.8117 54.6613 75.368 55.0182 75.0131C55.3751 74.6581 55.732 74.3919 56.1782 74.2144C56.6243 74.0369 57.1597 73.9482 57.6951 73.9482C58.2305 73.9482 58.7659 74.0369 59.1228 74.2144C59.5689 74.3919 59.9258 74.6581 60.1935 74.9243L59.8366 75.368L59.7474 75.4568C59.7474 75.4568 59.6582 75.4568 59.5689 75.4568C59.4797 75.4568 59.3905 75.4568 59.3012 75.368C59.212 75.2793 59.1228 75.1906 58.9443 75.1018C58.7659 75.0131 58.5874 74.9243 58.4089 74.8356C58.1412 74.7469 57.8736 74.7468 57.6059 74.7468C57.2489 74.7468 56.892 74.8356 56.5351 74.9243C56.1782 75.1018 55.9105 75.2793 55.6428 75.5455C55.3751 75.8117 55.1967 76.078 55.1074 76.5217C55.0182 76.8766 54.929 77.3203 54.929 77.7641C54.929 78.2078 55.0182 78.6515 55.1074 79.0064C55.2859 79.3614 55.4643 79.7164 55.6428 79.9826C55.9105 80.2488 56.1782 80.4263 56.4459 80.6038C56.8028 80.7813 57.1597 80.7813 57.5166 80.7813C57.7843 80.7813 57.9628 80.7813 58.1412 80.7813C58.3197 80.7813 58.4982 80.6925 58.6766 80.6925C58.8551 80.6038 58.9443 80.6038 59.1228 80.515C59.3012 80.4263 59.3905 80.3376 59.5689 80.1601C59.6582 80.0713 59.6582 80.0713 59.7474 80.0713ZM62.5135 77.4091H62.8704C63.0489 77.4091 63.1381 77.4091 63.2273 77.3203C63.3166 77.3203 63.4058 77.2316 63.495 77.1429L66.0827 74.3031C66.1719 74.2144 66.2612 74.1257 66.3504 74.1257C66.4396 74.1257 66.5289 74.0369 66.6181 74.0369H67.5104L64.4766 77.3203C64.3873 77.4091 64.2981 77.4978 64.2981 77.4978C64.2089 77.5866 64.1196 77.5866 64.1196 77.6753C64.2089 77.6753 64.2981 77.764 64.3873 77.8528C64.4766 77.9415 64.5658 78.0303 64.655 78.119L67.6888 81.7574H66.7965C66.7073 81.7574 66.7073 81.7574 66.6181 81.7574C66.5289 81.7574 66.5289 81.7574 66.5289 81.7574L66.4396 81.6687L66.3504 81.5799L63.6735 78.5627C63.5843 78.474 63.495 78.3852 63.4058 78.3852C63.3166 78.3852 63.2274 78.2965 63.0489 78.2965H62.6027V81.7574H61.532V74.1257H62.6027V77.4091H62.5135Z" fill="url(#paint0_radial)"/>
<path d="M73.2869 70.771H97.6478V85.1479H73.3198V70.771H73.2869ZM80.3413 73.9733V81.979H84.9564V80.9783H81.4621V78.4098H84.2971V77.4091H81.4621V75.0074H84.8904V74.0066L80.3413 73.9733ZM85.3849 80.9116V81.9456H90.6922V80.9449H86.7365L90.5274 75.0074V73.9733H85.5168V74.974H89.2088L85.3849 80.9116Z" fill="#242424"/>
<path d="M73.2869 70.771H97.6478V85.1479H73.3198V70.771H73.2869ZM80.3413 73.9733V81.979H84.9564V80.9783H81.4621V78.4098H84.2971V77.4091H81.4621V75.0074H84.8904V74.0066L80.3413 73.9733ZM85.3849 80.9116V81.9456H90.6922V80.9449H86.7365L90.5274 75.0074V73.9733H85.5168V74.974H89.2088L85.3849 80.9116Z" fill="url(#paint1_radial)"/>
<path d="M61.8577 42.5213C61.5913 42.5213 61.325 42.5875 61.0586 42.5875C60.6591 42.5875 60.1929 42.5213 59.7934 42.4551C54.7324 41.7928 50.6037 39.6073 48.0732 37.8854L61.8577 62.3894V42.5213Z" fill="#242424"/>
<path d="M61.8577 42.5213C61.5913 42.5213 61.325 42.5875 61.0586 42.5875C60.6591 42.5875 60.1929 42.5213 59.7934 42.4551C54.7324 41.7928 50.6037 39.6073 48.0732 37.8854L61.8577 62.3894V42.5213Z" fill="url(#paint2_radial)"/>
<path d="M47.1408 54.1774L60.8586 61.9921L46.7412 37.0246L47.1408 54.1774Z" fill="#242424"/>
<path d="M47.1408 54.1774L60.8586 61.9921L46.7412 37.0246L47.1408 54.1774Z" fill="url(#paint3_radial)"/>
<path d="M87.562 48.1509L62.9897 42.7203L75.0428 55.7007L87.3623 48.7469C87.4955 48.6807 87.6286 48.5482 87.6286 48.4158C87.6286 48.3496 87.6286 48.2171 87.562 48.1509Z" fill="#242424"/>
<path d="M87.562 48.1509L62.9897 42.7203L75.0428 55.7007L87.3623 48.7469C87.4955 48.6807 87.6286 48.5482 87.6286 48.4158C87.6286 48.3496 87.6286 48.2171 87.562 48.1509Z" fill="url(#paint4_radial)"/>
<path d="M62.9897 41.6601C66.519 40.8654 72.9784 38.8124 76.2414 34.3089C76.569 33.6572 76.6606 32.928 75.8418 32.5208C73.5777 31.5274 68.7831 29.2757 65.3869 27.62C63.5224 26.6929 61.2583 26.8253 59.3937 27.8849C56.9077 29.4583 54.3102 30.8997 51.7357 32.3221C50.3031 33.0893 48.7611 33.8086 47.4072 34.7063C47.1664 34.866 46.7413 35.1662 46.7413 35.501C46.6747 36.0971 47.4072 36.7593 47.8734 37.0905C48.1397 37.2892 48.4727 37.4878 48.8056 37.6865C50.2707 38.6799 51.8689 39.4746 53.4671 40.1369C55.5314 40.9979 57.6623 41.5939 59.8598 41.8588C60.6589 41.9913 61.458 41.9913 62.2571 41.8588C62.4569 41.7926 62.7233 41.7264 62.9897 41.6601Z" fill="#242424"/>
<path d="M62.9897 41.6601C66.519 40.8654 72.9784 38.8124 76.2414 34.3089C76.569 33.6572 76.6606 32.928 75.8418 32.5208C73.5777 31.5274 68.7831 29.2757 65.3869 27.62C63.5224 26.6929 61.2583 26.8253 59.3937 27.8849C56.9077 29.4583 54.3102 30.8997 51.7357 32.3221C50.3031 33.0893 48.7611 33.8086 47.4072 34.7063C47.1664 34.866 46.7413 35.1662 46.7413 35.501C46.6747 36.0971 47.4072 36.7593 47.8734 37.0905C48.1397 37.2892 48.4727 37.4878 48.8056 37.6865C50.2707 38.6799 51.8689 39.4746 53.4671 40.1369C55.5314 40.9979 57.6623 41.5939 59.8598 41.8588C60.6589 41.9913 61.458 41.9913 62.2571 41.8588C62.4569 41.7926 62.7233 41.7264 62.9897 41.6601Z" fill="url(#paint5_radial)"/>
<path d="M45.5428 53.25L42.9457 48.4155L37.019 48.3492C37.0856 48.4155 37.0856 48.4155 37.1522 48.4817L45.5428 53.25Z" fill="#242424"/>
<path d="M45.5428 53.25L42.9457 48.4155L37.019 48.3492C37.0856 48.4155 37.0856 48.4155 37.1522 48.4817L45.5428 53.25Z" fill="url(#paint6_radial)"/>
<path d="M46.4452 53.6875L46.3436 48.4531L43.5039 48.4258C43.5742 48.5312 43.793 48.9688 43.793 48.9688L46.4452 53.6875Z" fill="#242424"/>
<path d="M46.4452 53.6875L46.3436 48.4531L43.5039 48.4258C43.5742 48.5312 43.793 48.9688 43.793 48.9688L46.4452 53.6875Z" fill="url(#paint7_radial)"/>
<path d="M71.3801 52.7198L69.7153 55.2364L74.177 55.7662L71.3801 52.7198Z" fill="#242424"/>
<path d="M71.3801 52.7198L69.7153 55.2364L74.177 55.7662L71.3801 52.7198Z" fill="url(#paint8_radial)"/>
<path d="M69.2491 55.8329L65.7864 60.9324L73.9106 56.3627L69.2491 55.8329Z" fill="#242424"/>
<path d="M69.2491 55.8329L65.7864 60.9324L73.9106 56.3627L69.2491 55.8329Z" fill="url(#paint9_radial)"/>
<path d="M64.5214 61.6603L70.9808 52.2561L62.5237 43.183V62.5212C63.3894 62.3592 64.0553 62.0281 64.5214 61.6603Z" fill="#242424"/>
<path d="M64.5214 61.6603L70.9808 52.2561L62.5237 43.183V62.5212C63.3894 62.3592 64.0553 62.0281 64.5214 61.6603Z" fill="url(#paint10_radial)"/>
<path d="M63.6558 41.8876L86.9628 47.0533L77.1073 33.6755C77.0192 33.9382 76.908 34.1514 76.7482 34.3742C73.6791 38.6545 68.0384 40.7649 63.6558 41.8876Z" fill="#242424"/>
<path d="M63.6558 41.8876L86.9628 47.0533L77.1073 33.6755C77.0192 33.9382 76.908 34.1514 76.7482 34.3742C73.6791 38.6545 68.0384 40.7649 63.6558 41.8876Z" fill="url(#paint11_radial)"/>
<path d="M46.3419 47.8188L46.0755 36.0305L37.019 47.6864L43.3452 47.7526L46.3419 47.8188Z" fill="#242424"/>
<path d="M46.3419 47.8188L46.0755 36.0305L37.019 47.6864L43.3452 47.7526L46.3419 47.8188Z" fill="url(#paint12_radial)"/>
<defs>
<filter id="filter0_dd" x="0.44751" y="0" width="119.5" height="119.5" filterUnits="userSpaceOnUse" color-interpolation-filters="sRGB">
<feFlood flood-opacity="0" result="BackgroundImageFix"/>
<feColorMatrix in="SourceAlpha" type="matrix" values="0 0 0 0 0 0 0 0 0 0 0 0 0 0 0 0 0 0 127 0"/>
<feOffset dy="4"/>
<feGaussianBlur stdDeviation="2"/>
<feColorMatrix type="matrix" values="0 0 0 0 0 0 0 0 0 0 0 0 0 0 0 0 0 0 0.07 0"/>
<feBlend mode="normal" in2="BackgroundImageFix" result="effect1_dropShadow"/>
<feColorMatrix in="SourceAlpha" type="matrix" values="0 0 0 0 0 0 0 0 0 0 0 0 0 0 0 0 0 0 127 0"/>
<feOffset dy="3"/>
<feGaussianBlur stdDeviation="1"/>
<feColorMatrix type="matrix" values="0 0 0 0 0 0 0 0 0 0 0 0 0 0 0 0 0 0 0.056 0"/>
<feBlend mode="normal" in2="effect1_dropShadow" result="effect2_dropShadow"/>
<feBlend mode="normal" in="SourceGraphic" in2="effect2_dropShadow" result="shape"/>
</filter>
<radialGradient id="paint0_radial" cx="0" cy="0" r="1" gradientUnits="userSpaceOnUse" gradientTransform="translate(57.278 71.1502) rotate(90) scale(16.5628 86.2979)">
<stop stop-color="#686868"/>
<stop offset="1" stop-color="#878787" stop-opacity="0"/>
</radialGradient>
<radialGradient id="paint1_radial" cx="0" cy="0" r="1" gradientUnits="userSpaceOnUse" gradientTransform="translate(91.4147 65.6199) rotate(90) scale(30.4924 51.6676)">
<stop stop-color="#686868"/>
<stop offset="1" stop-color="#878787" stop-opacity="0"/>
</radialGradient>
<radialGradient id="paint2_radial" cx="0" cy="0" r="1" gradientUnits="userSpaceOnUse" gradientTransform="translate(58.3307 29.106) rotate(90) scale(51.971 29.2358)">
<stop stop-color="#686868"/>
<stop offset="1" stop-color="#878787" stop-opacity="0"/>
</radialGradient>
<radialGradient id="paint3_radial" cx="0" cy="0" r="1" gradientUnits="userSpaceOnUse" gradientTransform="translate(57.2465 28.079) rotate(90) scale(52.9542 29.942)">
<stop stop-color="#686868"/>
<stop offset="1" stop-color="#878787" stop-opacity="0"/>
</radialGradient>
<radialGradient id="paint4_radial" cx="0" cy="0" r="1" gradientUnits="userSpaceOnUse" gradientTransform="translate(81.3244 38.0695) rotate(90) scale(27.5306 52.2572)">
<stop stop-color="#686868"/>
<stop offset="1" stop-color="#878787" stop-opacity="0"/>
</radialGradient>
<radialGradient id="paint5_radial" cx="0" cy="0" r="1" gradientUnits="userSpaceOnUse" gradientTransform="translate(68.8694 21.6407) rotate(90) scale(31.7251 63.0814)">
<stop stop-color="#686868"/>
<stop offset="1" stop-color="#878787" stop-opacity="0"/>
</radialGradient>
<radialGradient id="paint6_radial" cx="0" cy="0" r="1" gradientUnits="userSpaceOnUse" gradientTransform="translate(43.3618 46.5934) rotate(90) scale(10.3942 18.0782)">
<stop stop-color="#686868"/>
<stop offset="1" stop-color="#878787" stop-opacity="0"/>
</radialGradient>
<radialGradient id="paint7_radial" cx="0" cy="0" r="1" gradientUnits="userSpaceOnUse" gradientTransform="translate(48.4698 46.6582) rotate(90) scale(10.3942 18.0782)">
<stop stop-color="#686868"/>
<stop offset="1" stop-color="#878787" stop-opacity="0"/>
</radialGradient>
<radialGradient id="paint8_radial" cx="0" cy="0" r="1" gradientUnits="userSpaceOnUse" gradientTransform="translate(73.0354 51.6283) rotate(90) scale(6.46126 9.46279)">
<stop stop-color="#686868"/>
<stop offset="1" stop-color="#878787" stop-opacity="0"/>
</radialGradient>
<radialGradient id="paint9_radial" cx="0" cy="0" r="1" gradientUnits="userSpaceOnUse" gradientTransform="translate(71.8319 54.0058) rotate(90) scale(10.8156 17.2308)">
<stop stop-color="#686868"/>
<stop offset="1" stop-color="#878787" stop-opacity="0"/>
</radialGradient>
<radialGradient id="paint10_radial" cx="0" cy="0" r="1" gradientUnits="userSpaceOnUse" gradientTransform="translate(68.8169 36.2543) rotate(90) scale(41.0149 17.9369)">
<stop stop-color="#686868"/>
<stop offset="1" stop-color="#878787" stop-opacity="0"/>
</radialGradient>
<radialGradient id="paint11_radial" cx="0" cy="0" r="1" gradientUnits="userSpaceOnUse" gradientTransform="translate(80.9994 28.8824) rotate(90) scale(28.3734 49.4325)">
<stop stop-color="#686868"/>
<stop offset="1" stop-color="#878787" stop-opacity="0"/>
</radialGradient>
<radialGradient id="paint12_radial" cx="0" cy="0" r="1" gradientUnits="userSpaceOnUse" gradientTransform="translate(43.9565 31.8068) rotate(90) scale(25.0023 19.773)">
<stop stop-color="#686868"/>
<stop offset="1" stop-color="#878787" stop-opacity="0"/>
</radialGradient>
</defs>
</svg>
